<?xml version="1.0" encoding="iso-8859-1"?>
<!-- Generator: Adobe Illustrator 19.0.0, SVG Export Plug-In . SVG Version: 6.00 Build 0)  -->
<svg version="1.1" id="Layer_1" xmlns="http://www.w3.org/2000/svg" xmlns:xlink="http://www.w3.org/1999/xlink" x="0px" y="0px"
	 viewBox="0 0 512.001 512.001" style="enable-background:new 0 0 512.001 512.001;" xml:space="preserve">
<path style="fill:#507C5C;" d="M458.826,484.594H322.04c-11.313,0-22.414-2.028-32.995-6.029l-13.189-4.985
	c-3.039-1.149-6.085-2.44-9.309-3.947c-6.702-3.133-14.389-3.132-21.092,0c-3.223,1.507-6.268,2.798-9.307,3.947l-13.189,4.985
	c-10.581,4-21.684,6.029-32.995,6.029H53.174C23.854,484.594,0,460.739,0,431.42V99.926c0-29.321,23.854-53.174,53.174-53.174
	h148.363l22.592-9.545c2.024-0.969,3.708-1.791,5.21-2.659c16.444-9.498,36.879-9.496,53.323,0c1.501,0.866,3.184,1.689,5.208,2.657
	l22.592,9.545h148.363c29.321,0,53.174,23.853,53.174,53.174v43.364c0,7.844-6.359,14.203-14.203,14.203
	s-14.203-6.359-14.203-14.203V99.926c0-13.656-11.111-24.767-24.767-24.767H307.587c-1.899,0-3.778-0.381-5.528-1.119
	l-25.544-10.792c-0.2-0.085-0.399-0.175-0.597-0.268c-2.139-1.023-4.802-2.295-7.459-3.829c-7.684-4.437-17.231-4.438-24.914,0
	c-2.659,1.535-5.322,2.808-7.461,3.831c-0.197,0.094-0.396,0.183-0.597,0.268l-25.544,10.792c-1.748,0.739-3.629,1.119-5.528,1.119
	H53.174c-13.656-0.001-24.767,11.11-24.767,24.766V431.42c0,13.656,11.111,24.767,24.767,24.767H189.96
	c7.869,0,15.591-1.41,22.951-4.194l13.19-4.985c2.362-0.893,4.758-1.91,7.326-3.111c14.345-6.704,30.801-6.704,45.145,0
	c2.568,1.2,4.965,2.217,7.327,3.111l13.189,4.985c7.362,2.782,15.084,4.194,22.952,4.194h136.786
	c13.658,0,24.767-11.111,24.767-24.767V222.825c0-7.844,6.359-14.203,14.203-14.203s14.203,6.359,14.203,14.203V431.42
	C512,460.739,488.146,484.594,458.826,484.594z"/>
<path style="fill:#CFF09E;" d="M302.16,58.881l-19.448-8.594c-2.998-1.325-5.903-2.845-8.817-4.345
	c-11.22-5.774-24.566-5.774-35.786,0c-2.914,1.5-5.819,3.02-8.817,4.345l-19.448,8.594v408.426l21.097-7.164
	c3.201-1.088,6.305-2.432,9.404-3.785c9.978-4.359,21.337-4.359,31.315,0c3.099,1.354,6.203,2.699,9.404,3.785l21.097,7.164
	L302.16,58.881L302.16,58.881z"/>
<g>
	<path style="fill:#507C5C;" d="M302.158,481.51c-1.534,0-3.076-0.249-4.565-0.754l-21.097-7.164
		c-3.886-1.319-7.566-2.927-10.522-4.218c-6.325-2.763-13.621-2.763-19.944,0c-2.957,1.292-6.637,2.9-10.522,4.218l-21.097,7.164
		c-4.338,1.471-9.117,0.763-12.84-1.903c-3.723-2.667-5.931-6.967-5.931-11.546V58.881c0-5.623,3.318-10.718,8.462-12.99
		l19.448-8.594c2.336-1.033,4.725-2.264,7.254-3.568l0.802-0.415c7.509-3.863,15.944-5.906,24.394-5.906
		c8.449,0,16.885,2.042,24.391,5.904l0.805,0.415c2.53,1.302,4.917,2.535,7.254,3.566l19.45,8.596
		c5.144,2.273,8.462,7.367,8.462,12.99v408.426c0,4.579-2.209,8.878-5.931,11.546C307.989,480.602,305.088,481.51,302.158,481.51z
		 M256.001,438.885c7.393,0,14.574,1.5,21.343,4.457c2.595,1.133,5.536,2.419,8.286,3.352l2.326,0.79V68.131l-10.986-4.855
		c-3.113-1.375-5.999-2.863-8.789-4.301l-0.788-0.406c-7.005-3.603-15.777-3.605-22.788,0.001l-0.785,0.405
		c-2.79,1.439-5.676,2.926-8.789,4.302l-10.986,4.855v379.352l2.328-0.79c2.748-0.933,5.69-2.219,8.285-3.352
		C241.427,440.385,248.608,438.885,256.001,438.885z"/>
	<path style="fill:#507C5C;" d="M440.64,199.628h-85.219c-7.844,0-14.203-6.359-14.203-14.203c0-7.844,6.359-14.203,14.203-14.203
		h85.219c7.844,0,14.203,6.359,14.203,14.203S448.485,199.628,440.64,199.628z"/>
	<path style="fill:#507C5C;" d="M440.64,277.271h-85.219c-7.844,0-14.203-6.359-14.203-14.203c0-7.844,6.359-14.203,14.203-14.203
		h85.219c7.844,0,14.203,6.359,14.203,14.203C454.844,270.913,448.485,277.271,440.64,277.271z"/>
	<path style="fill:#507C5C;" d="M440.64,354.916h-85.219c-7.844,0-14.203-6.359-14.203-14.203c0-7.844,6.359-14.203,14.203-14.203
		h85.219c7.844,0,14.203,6.359,14.203,14.203C454.844,348.557,448.485,354.916,440.64,354.916z"/>
	<path style="fill:#507C5C;" d="M156.579,199.628h-85.22c-7.844,0-14.203-6.359-14.203-14.203c0-7.844,6.359-14.203,14.203-14.203
		h85.22c7.844,0,14.203,6.359,14.203,14.203S164.423,199.628,156.579,199.628z"/>
	<path style="fill:#507C5C;" d="M156.579,277.271h-85.22c-7.844,0-14.203-6.359-14.203-14.203c0-7.844,6.359-14.203,14.203-14.203
		h85.22c7.844,0,14.203,6.359,14.203,14.203C170.782,270.913,164.423,277.271,156.579,277.271z"/>
	<path style="fill:#507C5C;" d="M156.579,354.916h-85.22c-7.844,0-14.203-6.359-14.203-14.203c0-7.844,6.359-14.203,14.203-14.203
		h85.22c7.844,0,14.203,6.359,14.203,14.203C170.782,348.557,164.423,354.916,156.579,354.916z"/>
</g>
<g>
</g>
<g>
</g>
<g>
</g>
<g>
</g>
<g>
</g>
<g>
</g>
<g>
</g>
<g>
</g>
<g>
</g>
<g>
</g>
<g>
</g>
<g>
</g>
<g>
</g>
<g>
</g>
<g>
</g>
</svg>
